<svg width="207" height="13" viewBox="0 0 207 13" fill="none" xmlns="http://www.w3.org/2000/svg">
<path d="M0.855469 8.57031C1.75781 9.01562 2.72461 9.23828 3.75586 9.23828C5.02539 9.23828 5.66016 8.66016 5.66016 7.50391C5.66016 7.12891 5.55859 6.82617 5.35547 6.5957C5.15625 6.36133 4.79102 6.17773 4.25977 6.04492L2.53711 5.61133C1.2207 5.2793 0.5625 4.57617 0.5625 3.50195C0.5625 2.67773 0.845703 2.06641 1.41211 1.66797C1.97852 1.26562 2.76172 1.06445 3.76172 1.06445C4.28516 1.06445 4.77539 1.12109 5.23242 1.23438C5.68945 1.34766 6.07227 1.5 6.38086 1.69141L6.08789 2.51758C5.82617 2.37305 5.47852 2.24414 5.04492 2.13086C4.61523 2.01758 4.17969 1.96094 3.73828 1.96094C2.32422 1.96094 1.61719 2.45117 1.61719 3.43164C1.61719 3.76367 1.72461 4.03125 1.93945 4.23438C2.1582 4.43359 2.48438 4.58594 2.91797 4.69141L4.56445 5.08984C5.26758 5.25781 5.80078 5.52734 6.16406 5.89844C6.52734 6.26562 6.70898 6.78906 6.70898 7.46875C6.70898 8.35156 6.4375 9.01758 5.89453 9.4668C5.35547 9.91211 4.62109 10.1348 3.69141 10.1348C2.99609 10.1348 2.37695 10.0645 1.83398 9.92383C1.29492 9.7793 0.867188 9.60938 0.550781 9.41406L0.855469 8.57031ZM9.1875 3.57227V10H8.20312V3.57227H9.1875ZM9.1875 1.23438V2.39453H8.20312V1.23438H9.1875ZM15.1699 10H10.6816V9.26172L13.9688 4.3457H10.7695V3.57227H15.0645V4.3457L11.7832 9.22656H15.1699V10ZM20.0801 4.76172C19.7949 4.41797 19.4023 4.24609 18.9023 4.24609C18.4023 4.24609 17.9941 4.42383 17.6777 4.7793C17.3613 5.13086 17.1758 5.61328 17.1211 6.22656H20.5137C20.5137 5.58984 20.3691 5.10156 20.0801 4.76172ZM19.0957 10.1348C18.1621 10.1348 17.4258 9.83789 16.8867 9.24414C16.3516 8.65039 16.084 7.83789 16.084 6.80664C16.084 5.81055 16.3438 5.00391 16.8633 4.38672C17.3828 3.76562 18.0664 3.44922 18.9141 3.4375C19.7109 3.4375 20.3418 3.71094 20.8066 4.25781C21.2754 4.80078 21.5098 5.52734 21.5098 6.4375C21.5098 6.48438 21.5078 6.57031 21.5039 6.69531C21.5039 6.82031 21.5039 6.91016 21.5039 6.96484H17.0918C17.1035 7.69531 17.291 8.26562 17.6543 8.67578C18.0215 9.08203 18.5137 9.28516 19.1309 9.28516C19.8105 9.28516 20.4922 9.10547 21.1758 8.74609L21.3281 9.53711C20.6758 9.93555 19.9316 10.1348 19.0957 10.1348ZM25.6465 7.85547V3.57227H26.6309V7.86719C26.6309 8.14844 26.6699 8.38672 26.748 8.58203C26.8301 8.77734 26.9453 8.92969 27.0938 9.03906C27.2461 9.14453 27.416 9.2207 27.6035 9.26758C27.7949 9.31445 28.0137 9.33789 28.2598 9.33789C28.7676 9.33789 29.1621 9.22656 29.4434 9.00391C29.7285 8.78125 29.8711 8.40234 29.8711 7.86719V3.57227H30.8555V7.85547C30.8555 8.18359 30.8086 8.47852 30.7148 8.74023C30.6211 9.00195 30.4941 9.2207 30.334 9.39648C30.1777 9.56836 29.9883 9.71094 29.7656 9.82422C29.543 9.9375 29.3066 10.0195 29.0566 10.0703C28.8105 10.1211 28.5449 10.1465 28.2598 10.1465C27.9785 10.1465 27.7129 10.1211 27.4629 10.0703C27.2129 10.0195 26.9746 9.9375 26.748 9.82422C26.5254 9.70703 26.332 9.5625 26.168 9.39062C26.0078 9.21484 25.8809 8.99609 25.7871 8.73438C25.6934 8.47266 25.6465 8.17969 25.6465 7.85547ZM32.3145 12.7891V3.57227H33.1758L33.2695 4.44531C33.832 3.77344 34.5078 3.4375 35.2969 3.4375C35.8828 3.4375 36.3789 3.58398 36.7852 3.87695C37.1914 4.16992 37.4902 4.56641 37.6816 5.06641C37.877 5.56641 37.9746 6.15039 37.9746 6.81836C37.9746 7.45898 37.8691 8.0293 37.6582 8.5293C37.4473 9.02539 37.1367 9.41797 36.7266 9.70703C36.3203 9.99219 35.8438 10.1348 35.2969 10.1348C34.8828 10.1348 34.4941 10.043 34.1309 9.85938C33.7676 9.67188 33.4766 9.42578 33.2578 9.12109C33.2812 9.54297 33.293 9.95312 33.293 10.3516V12.7246L32.3145 12.7891ZM35.1621 9.30859C35.459 9.30859 35.7246 9.24219 35.959 9.10938C36.1934 8.97266 36.3828 8.78711 36.5273 8.55273C36.6719 8.31836 36.7812 8.05273 36.8555 7.75586C36.9297 7.45508 36.9668 7.13086 36.9668 6.7832C36.9668 6.04883 36.8125 5.44727 36.5039 4.97852C36.1953 4.50586 35.7441 4.26953 35.1504 4.26953C33.9082 4.26953 33.2871 5.07227 33.2871 6.67773C33.2871 7.54883 33.4316 8.20508 33.7207 8.64648C34.0137 9.08789 34.4941 9.30859 35.1621 9.30859ZM44.4082 10.1172C43.7754 10.1172 43.3262 9.96289 43.0605 9.6543C42.7949 9.3457 42.6543 8.84766 42.6387 8.16016V4.29883H41.6836L41.7246 3.6543L42.6328 3.57227L42.9668 2.10156L43.6113 2.07812V3.57227H45.3984V4.29883H43.6113V7.98438C43.6113 8.47266 43.6855 8.81641 43.834 9.01562C43.9824 9.21484 44.2363 9.31445 44.5957 9.31445C44.7246 9.31445 45.0039 9.2832 45.4336 9.2207L45.4746 9.99414C45.0098 10.0762 44.6543 10.1172 44.4082 10.1172ZM47.1621 6.80078C47.1621 7.5625 47.3301 8.17383 47.666 8.63477C48.0059 9.0918 48.5 9.32031 49.1484 9.32031C49.7891 9.32031 50.2715 9.0918 50.5957 8.63477C50.9238 8.17773 51.0879 7.5625 51.0879 6.78906C51.0879 6.00391 50.9258 5.38672 50.6016 4.9375C50.2812 4.48438 49.791 4.25781 49.1309 4.25781C48.4902 4.25781 48.002 4.48828 47.666 4.94922C47.3301 5.41016 47.1621 6.02734 47.1621 6.80078ZM52.1016 6.7832C52.1016 7.7793 51.8359 8.58789 51.3047 9.20898C50.7734 9.82617 50.0391 10.1348 49.1016 10.1348C48.1992 10.1348 47.4805 9.82227 46.9453 9.19727C46.4141 8.57227 46.1484 7.76953 46.1484 6.78906C46.1484 5.78906 46.416 4.98047 46.9512 4.36328C47.4863 3.74609 48.2207 3.4375 49.1543 3.4375C50.0723 3.4375 50.793 3.74805 51.3164 4.36914C51.8398 4.98633 52.1016 5.79102 52.1016 6.7832ZM57.4219 1.23438H58.3535V10H57.3164V2.31836C56.9219 2.57617 56.4395 2.79688 55.8691 2.98047V2.00195C55.9316 1.97461 56.0586 1.91992 56.25 1.83789C56.4414 1.75586 56.584 1.69336 56.6777 1.65039C56.7754 1.60742 56.8965 1.54688 57.041 1.46875C57.1855 1.39062 57.3125 1.3125 57.4219 1.23438ZM64.3242 9.79492C63.9375 10.0215 63.4844 10.1348 62.9648 10.1348C62.4453 10.1348 61.9902 10.0215 61.5996 9.79492C61.209 9.56445 60.8945 9.24219 60.6562 8.82812C60.4219 8.41406 60.2461 7.9375 60.1289 7.39844C60.0156 6.85938 59.959 6.25977 59.959 5.59961C59.959 5.05664 59.9961 4.55469 60.0703 4.09375C60.1484 3.63281 60.2676 3.21484 60.4277 2.83984C60.5879 2.46484 60.7852 2.14648 61.0195 1.88477C61.2578 1.62305 61.541 1.42188 61.8691 1.28125C62.1973 1.13672 62.5625 1.06445 62.9648 1.06445C63.4648 1.06445 63.9062 1.17383 64.2891 1.39258C64.6758 1.61133 64.9883 1.92383 65.2266 2.33008C65.4688 2.73242 65.6504 3.20898 65.7715 3.75977C65.8926 4.30664 65.9531 4.91992 65.9531 5.59961C65.9531 6.25977 65.8965 6.85938 65.7832 7.39844C65.6699 7.9375 65.4961 8.41406 65.2617 8.82812C65.0273 9.24219 64.7148 9.56445 64.3242 9.79492ZM63.9902 2.42969C63.7051 2.11328 63.3633 1.95508 62.9648 1.95508C62.5664 1.95508 62.2246 2.11328 61.9395 2.42969C61.6543 2.74219 61.4395 3.16797 61.2949 3.70703C61.1543 4.24219 61.084 4.86133 61.084 5.56445C61.084 6.2793 61.1543 6.91211 61.2949 7.46289C61.4395 8.00977 61.6543 8.44336 61.9395 8.76367C62.2246 9.08398 62.5664 9.24414 62.9648 9.24414C63.3633 9.24414 63.7051 9.08398 63.9902 8.76367C64.2754 8.44336 64.4883 8.00977 64.6289 7.46289C64.7734 6.91211 64.8457 6.2793 64.8457 5.56445C64.8457 4.86133 64.7734 4.24219 64.6289 3.70703C64.4883 3.16797 64.2754 2.74219 63.9902 2.42969ZM75.5977 10V6.6543C75.5977 6.3418 75.5898 6.08008 75.5742 5.86914C75.5625 5.6582 75.5312 5.44336 75.4805 5.22461C75.4336 5.00586 75.3652 4.83398 75.2754 4.70898C75.1895 4.58008 75.0684 4.47656 74.9121 4.39844C74.7559 4.31641 74.5684 4.27539 74.3496 4.27539C73.9199 4.27539 73.5527 4.39062 73.248 4.62109C72.9473 4.85156 72.7324 5.17578 72.6035 5.59375C72.5684 5.875 72.5508 6.17578 72.5508 6.49609V10H71.5723V6.54883C71.5723 6.25977 71.5625 6.00977 71.543 5.79883C71.5234 5.58398 71.4863 5.37695 71.4316 5.17773C71.377 4.97461 71.3027 4.81055 71.209 4.68555C71.1191 4.56055 70.998 4.46094 70.8457 4.38672C70.6934 4.3125 70.5117 4.27539 70.3008 4.27539C69.832 4.27539 69.4375 4.39453 69.1172 4.63281C68.8008 4.87109 68.5879 5.1875 68.4785 5.58203C68.4434 5.88281 68.4258 6.20898 68.4258 6.56055V10H67.4473C67.4395 5.98047 67.4355 3.83789 67.4355 3.57227H68.2559L68.3789 4.49219C68.5742 4.19531 68.8516 3.94531 69.2109 3.74219C69.5703 3.53906 69.9785 3.4375 70.4355 3.4375C70.6738 3.4375 70.8926 3.46289 71.0918 3.51367C71.2949 3.56055 71.4629 3.62109 71.5957 3.69531C71.7324 3.76953 71.8535 3.85938 71.959 3.96484C72.0645 4.06641 72.1465 4.16797 72.2051 4.26953C72.2637 4.36719 72.3125 4.4707 72.3516 4.58008C72.8203 3.81836 73.5371 3.4375 74.502 3.4375C75.2168 3.4375 75.7402 3.64258 76.0723 4.05273C76.4082 4.45898 76.5762 5.0625 76.5762 5.86328V10H75.5977ZM80.7539 4.25195C80.1328 4.25195 79.6562 4.4668 79.3242 4.89648C78.9961 5.32227 78.832 5.94922 78.832 6.77734C78.832 8.47266 79.4707 9.32031 80.748 9.32031C81.0645 9.32031 81.3418 9.25586 81.5801 9.12695C81.8223 8.99414 82.0117 8.81055 82.1484 8.57617C82.2891 8.33789 82.3926 8.07031 82.459 7.77344C82.5293 7.47656 82.5645 7.14648 82.5645 6.7832C82.5645 6.29102 82.5059 5.86133 82.3887 5.49414C82.2754 5.12695 82.0801 4.82812 81.8027 4.59766C81.5254 4.36719 81.1758 4.25195 80.7539 4.25195ZM80.8535 3.4375C81.4238 3.4375 81.916 3.58203 82.3301 3.87109C82.7441 4.16016 83.0547 4.55273 83.2617 5.04883C83.4688 5.54492 83.5723 6.11328 83.5723 6.75391C83.5723 7.41797 83.4688 8.00195 83.2617 8.50586C83.0586 9.00977 82.748 9.4082 82.3301 9.70117C81.916 9.99023 81.4199 10.1348 80.8418 10.1348C80.416 10.1348 80.0273 10.043 79.6758 9.85938C79.3242 9.67578 79.0312 9.42578 78.7969 9.10938L78.6973 10H77.8594V1.07617L78.8379 1.01758V3.14453C78.8379 3.66797 78.8301 4.11719 78.8145 4.49219C79.041 4.16797 79.334 3.91211 79.6934 3.72461C80.0566 3.5332 80.4434 3.4375 80.8535 3.4375ZM85.3535 10.0703C85.1113 10.0703 84.9199 9.99414 84.7793 9.8418C84.6426 9.68555 84.5742 9.50391 84.5742 9.29688C84.5742 9.08594 84.6426 8.9043 84.7793 8.75195C84.916 8.59961 85.1074 8.52344 85.3535 8.52344C85.5996 8.52344 85.791 8.59961 85.9277 8.75195C86.0645 8.9043 86.1328 9.08594 86.1328 9.29688C86.1328 9.50781 86.0645 9.68945 85.9277 9.8418C85.791 9.99414 85.5996 10.0703 85.3535 10.0703ZM91.752 10H90.7383V1.33398H95.5488L95.5078 2.23047H91.752V5.27148H95.332V6.13281H91.752V10ZM97.248 6.80078C97.248 7.5625 97.416 8.17383 97.752 8.63477C98.0918 9.0918 98.5859 9.32031 99.2344 9.32031C99.875 9.32031 100.357 9.0918 100.682 8.63477C101.01 8.17773 101.174 7.5625 101.174 6.78906C101.174 6.00391 101.012 5.38672 100.688 4.9375C100.367 4.48438 99.877 4.25781 99.2168 4.25781C98.5762 4.25781 98.0879 4.48828 97.752 4.94922C97.416 5.41016 97.248 6.02734 97.248 6.80078ZM102.188 6.7832C102.188 7.7793 101.922 8.58789 101.391 9.20898C100.859 9.82617 100.125 10.1348 99.1875 10.1348C98.2852 10.1348 97.5664 9.82227 97.0312 9.19727C96.5 8.57227 96.2344 7.76953 96.2344 6.78906C96.2344 5.78906 96.502 4.98047 97.0371 4.36328C97.5723 3.74609 98.3066 3.4375 99.2402 3.4375C100.158 3.4375 100.879 3.74805 101.402 4.36914C101.926 4.98633 102.188 5.79102 102.188 6.7832ZM106.459 3.51367C106.635 3.51367 106.795 3.52539 106.939 3.54883L106.904 4.45117C106.725 4.41992 106.568 4.4043 106.436 4.4043C105.889 4.4043 105.443 4.5957 105.1 4.97852C104.76 5.35742 104.59 5.82812 104.59 6.39062V10H103.611C103.607 6.05469 103.605 3.91211 103.605 3.57227H104.42L104.514 4.72656C104.736 4.36328 105.02 4.07031 105.363 3.84766C105.707 3.625 106.072 3.51367 106.459 3.51367ZM116.109 10V6.6543C116.109 6.3418 116.102 6.08008 116.086 5.86914C116.074 5.6582 116.043 5.44336 115.992 5.22461C115.945 5.00586 115.877 4.83398 115.787 4.70898C115.701 4.58008 115.58 4.47656 115.424 4.39844C115.268 4.31641 115.08 4.27539 114.861 4.27539C114.432 4.27539 114.064 4.39062 113.76 4.62109C113.459 4.85156 113.244 5.17578 113.115 5.59375C113.08 5.875 113.062 6.17578 113.062 6.49609V10H112.084V6.54883C112.084 6.25977 112.074 6.00977 112.055 5.79883C112.035 5.58398 111.998 5.37695 111.943 5.17773C111.889 4.97461 111.814 4.81055 111.721 4.68555C111.631 4.56055 111.51 4.46094 111.357 4.38672C111.205 4.3125 111.023 4.27539 110.812 4.27539C110.344 4.27539 109.949 4.39453 109.629 4.63281C109.312 4.87109 109.1 5.1875 108.99 5.58203C108.955 5.88281 108.938 6.20898 108.938 6.56055V10H107.959C107.951 5.98047 107.947 3.83789 107.947 3.57227H108.768L108.891 4.49219C109.086 4.19531 109.363 3.94531 109.723 3.74219C110.082 3.53906 110.49 3.4375 110.947 3.4375C111.186 3.4375 111.404 3.46289 111.604 3.51367C111.807 3.56055 111.975 3.62109 112.107 3.69531C112.244 3.76953 112.365 3.85938 112.471 3.96484C112.576 4.06641 112.658 4.16797 112.717 4.26953C112.775 4.36719 112.824 4.4707 112.863 4.58008C113.332 3.81836 114.049 3.4375 115.014 3.4375C115.729 3.4375 116.252 3.64258 116.584 4.05273C116.92 4.45898 117.088 5.0625 117.088 5.86328V10H116.109ZM120.199 9.34375C120.664 9.34375 121.072 9.2168 121.424 8.96289C121.779 8.70508 122.008 8.35938 122.109 7.92578V6.8418C122.09 6.8418 121.971 6.85156 121.752 6.87109C121.537 6.89062 121.396 6.90234 121.33 6.90625C120.482 6.98047 119.891 7.11914 119.555 7.32227C119.223 7.52539 119.057 7.85156 119.057 8.30078C119.057 8.64453 119.158 8.9043 119.361 9.08008C119.564 9.25586 119.844 9.34375 120.199 9.34375ZM122.326 10C122.268 9.75 122.211 9.48047 122.156 9.19141C121.801 9.54688 121.467 9.79297 121.154 9.92969C120.842 10.0664 120.475 10.1348 120.053 10.1348C119.451 10.1348 118.967 9.97852 118.6 9.66602C118.236 9.34961 118.055 8.89648 118.055 8.30664C118.055 7.65039 118.303 7.16406 118.799 6.84766C119.299 6.53125 120.018 6.33398 120.955 6.25586C121.084 6.24414 121.277 6.22852 121.535 6.20898C121.797 6.18555 121.992 6.16797 122.121 6.15625V5.58789C122.121 5.13477 122.016 4.79883 121.805 4.58008C121.594 4.36133 121.262 4.25195 120.809 4.25195C120.176 4.25195 119.537 4.4082 118.893 4.7207C118.873 4.67383 118.822 4.53906 118.74 4.31641C118.658 4.08984 118.615 3.97266 118.611 3.96484C118.896 3.80469 119.234 3.67773 119.625 3.58398C120.02 3.48633 120.42 3.4375 120.826 3.4375C121.627 3.4375 122.203 3.61328 122.555 3.96484C122.91 4.3125 123.088 4.90625 123.088 5.74609V10H122.326ZM126.826 10.1172C126.193 10.1172 125.744 9.96289 125.479 9.6543C125.213 9.3457 125.072 8.84766 125.057 8.16016V4.29883H124.102L124.143 3.6543L125.051 3.57227L125.385 2.10156L126.029 2.07812V3.57227H127.816V4.29883H126.029V7.98438C126.029 8.47266 126.104 8.81641 126.252 9.01562C126.4 9.21484 126.654 9.31445 127.014 9.31445C127.143 9.31445 127.422 9.2832 127.852 9.2207L127.893 9.99414C127.428 10.0762 127.072 10.1172 126.826 10.1172ZM128.953 4.76758V3.41406H130.16V4.76758H128.953ZM128.953 10.1465V8.78125H130.16V10.1465H128.953ZM134.83 12.7891V3.57227H135.691L135.785 4.44531C136.348 3.77344 137.023 3.4375 137.812 3.4375C138.398 3.4375 138.895 3.58398 139.301 3.87695C139.707 4.16992 140.006 4.56641 140.197 5.06641C140.393 5.56641 140.49 6.15039 140.49 6.81836C140.49 7.45898 140.385 8.0293 140.174 8.5293C139.963 9.02539 139.652 9.41797 139.242 9.70703C138.836 9.99219 138.359 10.1348 137.812 10.1348C137.398 10.1348 137.01 10.043 136.646 9.85938C136.283 9.67188 135.992 9.42578 135.773 9.12109C135.797 9.54297 135.809 9.95312 135.809 10.3516V12.7246L134.83 12.7891ZM137.678 9.30859C137.975 9.30859 138.24 9.24219 138.475 9.10938C138.709 8.97266 138.898 8.78711 139.043 8.55273C139.188 8.31836 139.297 8.05273 139.371 7.75586C139.445 7.45508 139.482 7.13086 139.482 6.7832C139.482 6.04883 139.328 5.44727 139.02 4.97852C138.711 4.50586 138.26 4.26953 137.666 4.26953C136.424 4.26953 135.803 5.07227 135.803 6.67773C135.803 7.54883 135.947 8.20508 136.236 8.64648C136.529 9.08789 137.01 9.30859 137.678 9.30859ZM141.873 10V3.57227H142.693L142.816 4.49219C143.07 4.17578 143.387 3.92188 143.766 3.73047C144.148 3.53516 144.561 3.4375 145.002 3.4375C145.744 3.4375 146.293 3.64648 146.648 4.06445C147.004 4.47852 147.182 5.11719 147.182 5.98047V10H146.203C146.203 7.42188 146.201 6.04102 146.197 5.85742C146.182 5.31055 146.07 4.91016 145.863 4.65625C145.66 4.40234 145.318 4.27539 144.838 4.27539C144.334 4.27539 143.914 4.39648 143.578 4.63867C143.242 4.88086 143.023 5.19531 142.922 5.58203C142.883 5.84375 142.863 6.14453 142.863 6.48438V10H141.873ZM151.307 9.16211C151.639 9.16211 151.93 9.10352 152.18 8.98633C152.43 8.86914 152.625 8.70703 152.766 8.5C152.906 8.29297 153.01 8.0625 153.076 7.80859C153.146 7.55469 153.182 7.27734 153.182 6.97656V6.50195C153.182 6.18945 153.146 5.90234 153.076 5.64062C153.006 5.375 152.896 5.13867 152.748 4.93164C152.604 4.7207 152.408 4.55664 152.162 4.43945C151.92 4.32227 151.637 4.26367 151.312 4.26367C151.043 4.26367 150.797 4.31445 150.574 4.41602C150.355 4.51758 150.174 4.65234 150.029 4.82031C149.889 4.98438 149.768 5.17773 149.666 5.40039C149.568 5.61914 149.498 5.8418 149.455 6.06836C149.412 6.29492 149.391 6.52344 149.391 6.75391C149.391 6.98047 149.414 7.20508 149.461 7.42773C149.508 7.65039 149.582 7.86719 149.684 8.07812C149.785 8.28906 149.908 8.47461 150.053 8.63477C150.197 8.79102 150.377 8.91797 150.592 9.01562C150.811 9.11328 151.049 9.16211 151.307 9.16211ZM149.801 12.9414L149.713 12.0566H150.908C151.24 12.0566 151.529 12.0332 151.775 11.9863C152.021 11.9395 152.227 11.8613 152.391 11.752C152.555 11.6465 152.688 11.5273 152.789 11.3945C152.891 11.2656 152.967 11.0957 153.018 10.8848C153.072 10.6777 153.107 10.4707 153.123 10.2637C153.143 10.0605 153.152 9.81055 153.152 9.51367V8.94531C152.918 9.28125 152.646 9.54102 152.338 9.72461C152.029 9.9043 151.637 9.99414 151.16 9.99414C150.793 9.99414 150.453 9.93164 150.141 9.80664C149.832 9.67773 149.57 9.50781 149.355 9.29688C149.145 9.08594 148.963 8.8418 148.811 8.56445C148.662 8.28711 148.553 8 148.482 7.70312C148.416 7.40625 148.383 7.10742 148.383 6.80664C148.383 6.33789 148.439 5.9043 148.553 5.50586C148.67 5.10742 148.842 4.75195 149.068 4.43945C149.295 4.12695 149.592 3.88281 149.959 3.70703C150.33 3.52734 150.754 3.4375 151.23 3.4375C151.652 3.4375 152.02 3.51953 152.332 3.68359C152.648 3.84375 152.932 4.0918 153.182 4.42773V3.57227H154.137V9.53711C154.137 9.81055 154.129 10.0488 154.113 10.252C154.102 10.459 154.068 10.6875 154.014 10.9375C153.963 11.1875 153.893 11.4023 153.803 11.582C153.713 11.7617 153.586 11.9414 153.422 12.1211C153.262 12.3047 153.068 12.4512 152.842 12.5605C152.619 12.6738 152.342 12.7656 152.01 12.8359C151.678 12.9062 151.303 12.9414 150.885 12.9414H149.801ZM155.572 11.6289C155.584 11.5156 155.617 11.2148 155.672 10.7266C155.73 10.2422 155.775 9.83398 155.807 9.50195C155.838 9.16992 155.861 8.87891 155.877 8.62891H157.031V8.88672C156.84 9.66016 156.559 10.5742 156.188 11.6289H155.572ZM162.832 3.57227V10.8145C162.832 11.2285 162.805 11.5625 162.75 11.8164C162.699 12.0703 162.6 12.2852 162.451 12.4609C162.307 12.6406 162.109 12.7656 161.859 12.8359C161.609 12.9062 161.283 12.9414 160.881 12.9414H160.576L160.447 12.0566H160.752C160.904 12.0566 161.035 12.0469 161.145 12.0273C161.258 12.0117 161.354 11.9902 161.432 11.9629C161.514 11.9355 161.58 11.8906 161.631 11.8281C161.682 11.7656 161.721 11.7051 161.748 11.6465C161.779 11.5918 161.801 11.5078 161.812 11.3945C161.828 11.2812 161.838 11.1797 161.842 11.0898C161.846 11 161.848 10.873 161.848 10.709V3.57227H162.832ZM162.832 1.23438V2.39453H161.848V1.23438H162.832ZM164.35 12.7891V3.57227H165.211L165.305 4.44531C165.867 3.77344 166.543 3.4375 167.332 3.4375C167.918 3.4375 168.414 3.58398 168.82 3.87695C169.227 4.16992 169.525 4.56641 169.717 5.06641C169.912 5.56641 170.01 6.15039 170.01 6.81836C170.01 7.45898 169.904 8.0293 169.693 8.5293C169.482 9.02539 169.172 9.41797 168.762 9.70703C168.355 9.99219 167.879 10.1348 167.332 10.1348C166.918 10.1348 166.529 10.043 166.166 9.85938C165.803 9.67188 165.512 9.42578 165.293 9.12109C165.316 9.54297 165.328 9.95312 165.328 10.3516V12.7246L164.35 12.7891ZM167.197 9.30859C167.494 9.30859 167.76 9.24219 167.994 9.10938C168.229 8.97266 168.418 8.78711 168.562 8.55273C168.707 8.31836 168.816 8.05273 168.891 7.75586C168.965 7.45508 169.002 7.13086 169.002 6.7832C169.002 6.04883 168.848 5.44727 168.539 4.97852C168.23 4.50586 167.779 4.26953 167.186 4.26953C165.943 4.26953 165.322 5.07227 165.322 6.67773C165.322 7.54883 165.467 8.20508 165.756 8.64648C166.049 9.08789 166.529 9.30859 167.197 9.30859ZM175.096 4.76172C174.811 4.41797 174.418 4.24609 173.918 4.24609C173.418 4.24609 173.01 4.42383 172.693 4.7793C172.377 5.13086 172.191 5.61328 172.137 6.22656H175.529C175.529 5.58984 175.385 5.10156 175.096 4.76172ZM174.111 10.1348C173.178 10.1348 172.441 9.83789 171.902 9.24414C171.367 8.65039 171.1 7.83789 171.1 6.80664C171.1 5.81055 171.359 5.00391 171.879 4.38672C172.398 3.76562 173.082 3.44922 173.93 3.4375C174.727 3.4375 175.357 3.71094 175.822 4.25781C176.291 4.80078 176.525 5.52734 176.525 6.4375C176.525 6.48438 176.523 6.57031 176.52 6.69531C176.52 6.82031 176.52 6.91016 176.52 6.96484H172.107C172.119 7.69531 172.307 8.26562 172.67 8.67578C173.037 9.08203 173.529 9.28516 174.146 9.28516C174.826 9.28516 175.508 9.10547 176.191 8.74609L176.344 9.53711C175.691 9.93555 174.947 10.1348 174.111 10.1348ZM180.381 9.16211C180.713 9.16211 181.004 9.10352 181.254 8.98633C181.504 8.86914 181.699 8.70703 181.84 8.5C181.98 8.29297 182.084 8.0625 182.15 7.80859C182.221 7.55469 182.256 7.27734 182.256 6.97656V6.50195C182.256 6.18945 182.221 5.90234 182.15 5.64062C182.08 5.375 181.971 5.13867 181.822 4.93164C181.678 4.7207 181.482 4.55664 181.236 4.43945C180.994 4.32227 180.711 4.26367 180.387 4.26367C180.117 4.26367 179.871 4.31445 179.648 4.41602C179.43 4.51758 179.248 4.65234 179.104 4.82031C178.963 4.98438 178.842 5.17773 178.74 5.40039C178.643 5.61914 178.572 5.8418 178.529 6.06836C178.486 6.29492 178.465 6.52344 178.465 6.75391C178.465 6.98047 178.488 7.20508 178.535 7.42773C178.582 7.65039 178.656 7.86719 178.758 8.07812C178.859 8.28906 178.982 8.47461 179.127 8.63477C179.271 8.79102 179.451 8.91797 179.666 9.01562C179.885 9.11328 180.123 9.16211 180.381 9.16211ZM178.875 12.9414L178.787 12.0566H179.982C180.314 12.0566 180.604 12.0332 180.85 11.9863C181.096 11.9395 181.301 11.8613 181.465 11.752C181.629 11.6465 181.762 11.5273 181.863 11.3945C181.965 11.2656 182.041 11.0957 182.092 10.8848C182.146 10.6777 182.182 10.4707 182.197 10.2637C182.217 10.0605 182.227 9.81055 182.227 9.51367V8.94531C181.992 9.28125 181.721 9.54102 181.412 9.72461C181.104 9.9043 180.711 9.99414 180.234 9.99414C179.867 9.99414 179.527 9.93164 179.215 9.80664C178.906 9.67773 178.645 9.50781 178.43 9.29688C178.219 9.08594 178.037 8.8418 177.885 8.56445C177.736 8.28711 177.627 8 177.557 7.70312C177.49 7.40625 177.457 7.10742 177.457 6.80664C177.457 6.33789 177.514 5.9043 177.627 5.50586C177.744 5.10742 177.916 4.75195 178.143 4.43945C178.369 4.12695 178.666 3.88281 179.033 3.70703C179.404 3.52734 179.828 3.4375 180.305 3.4375C180.727 3.4375 181.094 3.51953 181.406 3.68359C181.723 3.84375 182.006 4.0918 182.256 4.42773V3.57227H183.211V9.53711C183.211 9.81055 183.203 10.0488 183.188 10.252C183.176 10.459 183.143 10.6875 183.088 10.9375C183.037 11.1875 182.967 11.4023 182.877 11.582C182.787 11.7617 182.66 11.9414 182.496 12.1211C182.336 12.3047 182.143 12.4512 181.916 12.5605C181.693 12.6738 181.416 12.7656 181.084 12.8359C180.752 12.9062 180.377 12.9414 179.959 12.9414H178.875ZM184.646 11.6289C184.658 11.5156 184.691 11.2148 184.746 10.7266C184.805 10.2422 184.85 9.83398 184.881 9.50195C184.912 9.16992 184.936 8.87891 184.951 8.62891H186.105V8.88672C185.914 9.66016 185.633 10.5742 185.262 11.6289H184.646ZM193.307 9.16211C193.639 9.16211 193.93 9.10352 194.18 8.98633C194.43 8.86914 194.625 8.70703 194.766 8.5C194.906 8.29297 195.01 8.0625 195.076 7.80859C195.146 7.55469 195.182 7.27734 195.182 6.97656V6.50195C195.182 6.18945 195.146 5.90234 195.076 5.64062C195.006 5.375 194.896 5.13867 194.748 4.93164C194.604 4.7207 194.408 4.55664 194.162 4.43945C193.92 4.32227 193.637 4.26367 193.312 4.26367C193.043 4.26367 192.797 4.31445 192.574 4.41602C192.355 4.51758 192.174 4.65234 192.029 4.82031C191.889 4.98438 191.768 5.17773 191.666 5.40039C191.568 5.61914 191.498 5.8418 191.455 6.06836C191.412 6.29492 191.391 6.52344 191.391 6.75391C191.391 6.98047 191.414 7.20508 191.461 7.42773C191.508 7.65039 191.582 7.86719 191.684 8.07812C191.785 8.28906 191.908 8.47461 192.053 8.63477C192.197 8.79102 192.377 8.91797 192.592 9.01562C192.811 9.11328 193.049 9.16211 193.307 9.16211ZM191.801 12.9414L191.713 12.0566H192.908C193.24 12.0566 193.529 12.0332 193.775 11.9863C194.021 11.9395 194.227 11.8613 194.391 11.752C194.555 11.6465 194.688 11.5273 194.789 11.3945C194.891 11.2656 194.967 11.0957 195.018 10.8848C195.072 10.6777 195.107 10.4707 195.123 10.2637C195.143 10.0605 195.152 9.81055 195.152 9.51367V8.94531C194.918 9.28125 194.646 9.54102 194.338 9.72461C194.029 9.9043 193.637 9.99414 193.16 9.99414C192.793 9.99414 192.453 9.93164 192.141 9.80664C191.832 9.67773 191.57 9.50781 191.355 9.29688C191.145 9.08594 190.963 8.8418 190.811 8.56445C190.662 8.28711 190.553 8 190.482 7.70312C190.416 7.40625 190.383 7.10742 190.383 6.80664C190.383 6.33789 190.439 5.9043 190.553 5.50586C190.67 5.10742 190.842 4.75195 191.068 4.43945C191.295 4.12695 191.592 3.88281 191.959 3.70703C192.33 3.52734 192.754 3.4375 193.23 3.4375C193.652 3.4375 194.02 3.51953 194.332 3.68359C194.648 3.84375 194.932 4.0918 195.182 4.42773V3.57227H196.137V9.53711C196.137 9.81055 196.129 10.0488 196.113 10.252C196.102 10.459 196.068 10.6875 196.014 10.9375C195.963 11.1875 195.893 11.4023 195.803 11.582C195.713 11.7617 195.586 11.9414 195.422 12.1211C195.262 12.3047 195.068 12.4512 194.842 12.5605C194.619 12.6738 194.342 12.7656 194.01 12.8359C193.678 12.9062 193.303 12.9414 192.885 12.9414H191.801ZM198.926 3.57227V10H197.941V3.57227H198.926ZM198.926 1.23438V2.39453H197.941V1.23438H198.926ZM203.215 1.70312C202.809 1.70312 202.529 1.82031 202.377 2.05469C202.229 2.28906 202.154 2.69531 202.154 3.27344V3.57227H203.701V4.29883H202.154V10H201.176V4.29883H200.133L200.215 3.6543L201.176 3.57227V3.28516C201.184 2.45703 201.338 1.85742 201.639 1.48633C201.943 1.11133 202.434 0.923828 203.109 0.923828C203.371 0.923828 203.691 0.953125 204.07 1.01172L204.006 1.7793C203.658 1.72852 203.395 1.70312 203.215 1.70312ZM205.389 10.0703C205.146 10.0703 204.955 9.99414 204.814 9.8418C204.678 9.68555 204.609 9.50391 204.609 9.29688C204.609 9.08594 204.678 8.9043 204.814 8.75195C204.951 8.59961 205.143 8.52344 205.389 8.52344C205.635 8.52344 205.826 8.59961 205.963 8.75195C206.1 8.9043 206.168 9.08594 206.168 9.29688C206.168 9.50781 206.1 9.68945 205.963 9.8418C205.826 9.99414 205.635 10.0703 205.389 10.0703Z" fill="#999999"/>
</svg>
