<svg width="203" height="13" viewBox="0 0 203 13" fill="none" xmlns="http://www.w3.org/2000/svg">
<path d="M0.855469 8.57031C1.75781 9.01562 2.72461 9.23828 3.75586 9.23828C5.02539 9.23828 5.66016 8.66016 5.66016 7.50391C5.66016 7.12891 5.55859 6.82617 5.35547 6.5957C5.15625 6.36133 4.79102 6.17773 4.25977 6.04492L2.53711 5.61133C1.2207 5.2793 0.5625 4.57617 0.5625 3.50195C0.5625 2.67773 0.845703 2.06641 1.41211 1.66797C1.97852 1.26562 2.76172 1.06445 3.76172 1.06445C4.28516 1.06445 4.77539 1.12109 5.23242 1.23438C5.68945 1.34766 6.07227 1.5 6.38086 1.69141L6.08789 2.51758C5.82617 2.37305 5.47852 2.24414 5.04492 2.13086C4.61523 2.01758 4.17969 1.96094 3.73828 1.96094C2.32422 1.96094 1.61719 2.45117 1.61719 3.43164C1.61719 3.76367 1.72461 4.03125 1.93945 4.23438C2.1582 4.43359 2.48438 4.58594 2.91797 4.69141L4.56445 5.08984C5.26758 5.25781 5.80078 5.52734 6.16406 5.89844C6.52734 6.26562 6.70898 6.78906 6.70898 7.46875C6.70898 8.35156 6.4375 9.01758 5.89453 9.4668C5.35547 9.91211 4.62109 10.1348 3.69141 10.1348C2.99609 10.1348 2.37695 10.0645 1.83398 9.92383C1.29492 9.7793 0.867188 9.60938 0.550781 9.41406L0.855469 8.57031ZM9.1875 3.57227V10H8.20312V3.57227H9.1875ZM9.1875 1.23438V2.39453H8.20312V1.23438H9.1875ZM15.1699 10H10.6816V9.26172L13.9688 4.3457H10.7695V3.57227H15.0645V4.3457L11.7832 9.22656H15.1699V10ZM20.0801 4.76172C19.7949 4.41797 19.4023 4.24609 18.9023 4.24609C18.4023 4.24609 17.9941 4.42383 17.6777 4.7793C17.3613 5.13086 17.1758 5.61328 17.1211 6.22656H20.5137C20.5137 5.58984 20.3691 5.10156 20.0801 4.76172ZM19.0957 10.1348C18.1621 10.1348 17.4258 9.83789 16.8867 9.24414C16.3516 8.65039 16.084 7.83789 16.084 6.80664C16.084 5.81055 16.3438 5.00391 16.8633 4.38672C17.3828 3.76562 18.0664 3.44922 18.9141 3.4375C19.7109 3.4375 20.3418 3.71094 20.8066 4.25781C21.2754 4.80078 21.5098 5.52734 21.5098 6.4375C21.5098 6.48438 21.5078 6.57031 21.5039 6.69531C21.5039 6.82031 21.5039 6.91016 21.5039 6.96484H17.0918C17.1035 7.69531 17.291 8.26562 17.6543 8.67578C18.0215 9.08203 18.5137 9.28516 19.1309 9.28516C19.8105 9.28516 20.4922 9.10547 21.1758 8.74609L21.3281 9.53711C20.6758 9.93555 19.9316 10.1348 19.0957 10.1348ZM25.6465 7.85547V3.57227H26.6309V7.86719C26.6309 8.14844 26.6699 8.38672 26.748 8.58203C26.8301 8.77734 26.9453 8.92969 27.0938 9.03906C27.2461 9.14453 27.416 9.2207 27.6035 9.26758C27.7949 9.31445 28.0137 9.33789 28.2598 9.33789C28.7676 9.33789 29.1621 9.22656 29.4434 9.00391C29.7285 8.78125 29.8711 8.40234 29.8711 7.86719V3.57227H30.8555V7.85547C30.8555 8.18359 30.8086 8.47852 30.7148 8.74023C30.6211 9.00195 30.4941 9.2207 30.334 9.39648C30.1777 9.56836 29.9883 9.71094 29.7656 9.82422C29.543 9.9375 29.3066 10.0195 29.0566 10.0703C28.8105 10.1211 28.5449 10.1465 28.2598 10.1465C27.9785 10.1465 27.7129 10.1211 27.4629 10.0703C27.2129 10.0195 26.9746 9.9375 26.748 9.82422C26.5254 9.70703 26.332 9.5625 26.168 9.39062C26.0078 9.21484 25.8809 8.99609 25.7871 8.73438C25.6934 8.47266 25.6465 8.17969 25.6465 7.85547ZM32.3145 12.7891V3.57227H33.1758L33.2695 4.44531C33.832 3.77344 34.5078 3.4375 35.2969 3.4375C35.8828 3.4375 36.3789 3.58398 36.7852 3.87695C37.1914 4.16992 37.4902 4.56641 37.6816 5.06641C37.877 5.56641 37.9746 6.15039 37.9746 6.81836C37.9746 7.45898 37.8691 8.0293 37.6582 8.5293C37.4473 9.02539 37.1367 9.41797 36.7266 9.70703C36.3203 9.99219 35.8438 10.1348 35.2969 10.1348C34.8828 10.1348 34.4941 10.043 34.1309 9.85938C33.7676 9.67188 33.4766 9.42578 33.2578 9.12109C33.2812 9.54297 33.293 9.95312 33.293 10.3516V12.7246L32.3145 12.7891ZM35.1621 9.30859C35.459 9.30859 35.7246 9.24219 35.959 9.10938C36.1934 8.97266 36.3828 8.78711 36.5273 8.55273C36.6719 8.31836 36.7812 8.05273 36.8555 7.75586C36.9297 7.45508 36.9668 7.13086 36.9668 6.7832C36.9668 6.04883 36.8125 5.44727 36.5039 4.97852C36.1953 4.50586 35.7441 4.26953 35.1504 4.26953C33.9082 4.26953 33.2871 5.07227 33.2871 6.67773C33.2871 7.54883 33.4316 8.20508 33.7207 8.64648C34.0137 9.08789 34.4941 9.30859 35.1621 9.30859ZM44.4082 10.1172C43.7754 10.1172 43.3262 9.96289 43.0605 9.6543C42.7949 9.3457 42.6543 8.84766 42.6387 8.16016V4.29883H41.6836L41.7246 3.6543L42.6328 3.57227L42.9668 2.10156L43.6113 2.07812V3.57227H45.3984V4.29883H43.6113V7.98438C43.6113 8.47266 43.6855 8.81641 43.834 9.01562C43.9824 9.21484 44.2363 9.31445 44.5957 9.31445C44.7246 9.31445 45.0039 9.2832 45.4336 9.2207L45.4746 9.99414C45.0098 10.0762 44.6543 10.1172 44.4082 10.1172ZM47.1621 6.80078C47.1621 7.5625 47.3301 8.17383 47.666 8.63477C48.0059 9.0918 48.5 9.32031 49.1484 9.32031C49.7891 9.32031 50.2715 9.0918 50.5957 8.63477C50.9238 8.17773 51.0879 7.5625 51.0879 6.78906C51.0879 6.00391 50.9258 5.38672 50.6016 4.9375C50.2812 4.48438 49.791 4.25781 49.1309 4.25781C48.4902 4.25781 48.002 4.48828 47.666 4.94922C47.3301 5.41016 47.1621 6.02734 47.1621 6.80078ZM52.1016 6.7832C52.1016 7.7793 51.8359 8.58789 51.3047 9.20898C50.7734 9.82617 50.0391 10.1348 49.1016 10.1348C48.1992 10.1348 47.4805 9.82227 46.9453 9.19727C46.4141 8.57227 46.1484 7.76953 46.1484 6.78906C46.1484 5.78906 46.416 4.98047 46.9512 4.36328C47.4863 3.74609 48.2207 3.4375 49.1543 3.4375C50.0723 3.4375 50.793 3.74805 51.3164 4.36914C51.8398 4.98633 52.1016 5.79102 52.1016 6.7832ZM61.5352 1.23438L61.4531 2.19531H57.873C57.834 3.33203 57.8047 4.25195 57.7852 4.95508C58.2266 4.67383 58.7051 4.5332 59.2207 4.5332C59.6543 4.5332 60.041 4.60352 60.3809 4.74414C60.7246 4.88086 61.0039 5.07031 61.2188 5.3125C61.4375 5.55469 61.6035 5.83789 61.7168 6.16211C61.8301 6.48242 61.8867 6.83008 61.8867 7.20508C61.8867 8.0918 61.6016 8.80273 61.0312 9.33789C60.4648 9.86914 59.6934 10.1348 58.7168 10.1348C57.7363 10.1348 56.9512 9.86719 56.3613 9.33203L56.7422 8.50586C57.3203 8.95898 57.9902 9.18555 58.752 9.18555C59.3926 9.18555 59.8984 9.00391 60.2695 8.64062C60.6406 8.27734 60.8262 7.80273 60.8262 7.2168C60.8262 6.69336 60.6699 6.26953 60.3574 5.94531C60.0449 5.61719 59.5996 5.45312 59.0215 5.45312C58.4434 5.45312 57.9785 5.64648 57.627 6.0332L56.8125 5.92188L57.041 1.23438H61.5352ZM71.5547 10V6.6543C71.5547 6.3418 71.5469 6.08008 71.5312 5.86914C71.5195 5.6582 71.4883 5.44336 71.4375 5.22461C71.3906 5.00586 71.3223 4.83398 71.2324 4.70898C71.1465 4.58008 71.0254 4.47656 70.8691 4.39844C70.7129 4.31641 70.5254 4.27539 70.3066 4.27539C69.877 4.27539 69.5098 4.39062 69.2051 4.62109C68.9043 4.85156 68.6895 5.17578 68.5605 5.59375C68.5254 5.875 68.5078 6.17578 68.5078 6.49609V10H67.5293V6.54883C67.5293 6.25977 67.5195 6.00977 67.5 5.79883C67.4805 5.58398 67.4434 5.37695 67.3887 5.17773C67.334 4.97461 67.2598 4.81055 67.166 4.68555C67.0762 4.56055 66.9551 4.46094 66.8027 4.38672C66.6504 4.3125 66.4688 4.27539 66.2578 4.27539C65.7891 4.27539 65.3945 4.39453 65.0742 4.63281C64.7578 4.87109 64.5449 5.1875 64.4355 5.58203C64.4004 5.88281 64.3828 6.20898 64.3828 6.56055V10H63.4043C63.3965 5.98047 63.3926 3.83789 63.3926 3.57227H64.2129L64.3359 4.49219C64.5312 4.19531 64.8086 3.94531 65.168 3.74219C65.5273 3.53906 65.9355 3.4375 66.3926 3.4375C66.6309 3.4375 66.8496 3.46289 67.0488 3.51367C67.252 3.56055 67.4199 3.62109 67.5527 3.69531C67.6895 3.76953 67.8105 3.85938 67.916 3.96484C68.0215 4.06641 68.1035 4.16797 68.1621 4.26953C68.2207 4.36719 68.2695 4.4707 68.3086 4.58008C68.7773 3.81836 69.4941 3.4375 70.459 3.4375C71.1738 3.4375 71.6973 3.64258 72.0293 4.05273C72.3652 4.45898 72.5332 5.0625 72.5332 5.86328V10H71.5547ZM76.7109 4.25195C76.0898 4.25195 75.6133 4.4668 75.2812 4.89648C74.9531 5.32227 74.7891 5.94922 74.7891 6.77734C74.7891 8.47266 75.4277 9.32031 76.7051 9.32031C77.0215 9.32031 77.2988 9.25586 77.5371 9.12695C77.7793 8.99414 77.9688 8.81055 78.1055 8.57617C78.2461 8.33789 78.3496 8.07031 78.416 7.77344C78.4863 7.47656 78.5215 7.14648 78.5215 6.7832C78.5215 6.29102 78.4629 5.86133 78.3457 5.49414C78.2324 5.12695 78.0371 4.82812 77.7598 4.59766C77.4824 4.36719 77.1328 4.25195 76.7109 4.25195ZM76.8105 3.4375C77.3809 3.4375 77.873 3.58203 78.2871 3.87109C78.7012 4.16016 79.0117 4.55273 79.2188 5.04883C79.4258 5.54492 79.5293 6.11328 79.5293 6.75391C79.5293 7.41797 79.4258 8.00195 79.2188 8.50586C79.0156 9.00977 78.7051 9.4082 78.2871 9.70117C77.873 9.99023 77.377 10.1348 76.7988 10.1348C76.373 10.1348 75.9844 10.043 75.6328 9.85938C75.2812 9.67578 74.9883 9.42578 74.7539 9.10938L74.6543 10H73.8164V1.07617L74.7949 1.01758V3.14453C74.7949 3.66797 74.7871 4.11719 74.7715 4.49219C74.998 4.16797 75.291 3.91211 75.6504 3.72461C76.0137 3.5332 76.4004 3.4375 76.8105 3.4375ZM81.3105 10.0703C81.0684 10.0703 80.877 9.99414 80.7363 9.8418C80.5996 9.68555 80.5312 9.50391 80.5312 9.29688C80.5312 9.08594 80.5996 8.9043 80.7363 8.75195C80.873 8.59961 81.0645 8.52344 81.3105 8.52344C81.5566 8.52344 81.748 8.59961 81.8848 8.75195C82.0215 8.9043 82.0898 9.08594 82.0898 9.29688C82.0898 9.50781 82.0215 9.68945 81.8848 9.8418C81.748 9.99414 81.5566 10.0703 81.3105 10.0703ZM87.709 10H86.6953V1.33398H91.5059L91.4648 2.23047H87.709V5.27148H91.2891V6.13281H87.709V10ZM93.2051 6.80078C93.2051 7.5625 93.373 8.17383 93.709 8.63477C94.0488 9.0918 94.543 9.32031 95.1914 9.32031C95.832 9.32031 96.3145 9.0918 96.6387 8.63477C96.9668 8.17773 97.1309 7.5625 97.1309 6.78906C97.1309 6.00391 96.9688 5.38672 96.6445 4.9375C96.3242 4.48438 95.834 4.25781 95.1738 4.25781C94.5332 4.25781 94.0449 4.48828 93.709 4.94922C93.373 5.41016 93.2051 6.02734 93.2051 6.80078ZM98.1445 6.7832C98.1445 7.7793 97.8789 8.58789 97.3477 9.20898C96.8164 9.82617 96.082 10.1348 95.1445 10.1348C94.2422 10.1348 93.5234 9.82227 92.9883 9.19727C92.457 8.57227 92.1914 7.76953 92.1914 6.78906C92.1914 5.78906 92.459 4.98047 92.9941 4.36328C93.5293 3.74609 94.2637 3.4375 95.1973 3.4375C96.1152 3.4375 96.8359 3.74805 97.3594 4.36914C97.8828 4.98633 98.1445 5.79102 98.1445 6.7832ZM102.416 3.51367C102.592 3.51367 102.752 3.52539 102.896 3.54883L102.861 4.45117C102.682 4.41992 102.525 4.4043 102.393 4.4043C101.846 4.4043 101.4 4.5957 101.057 4.97852C100.717 5.35742 100.547 5.82812 100.547 6.39062V10H99.5684C99.5645 6.05469 99.5625 3.91211 99.5625 3.57227H100.377L100.471 4.72656C100.693 4.36328 100.977 4.07031 101.32 3.84766C101.664 3.625 102.029 3.51367 102.416 3.51367ZM112.066 10V6.6543C112.066 6.3418 112.059 6.08008 112.043 5.86914C112.031 5.6582 112 5.44336 111.949 5.22461C111.902 5.00586 111.834 4.83398 111.744 4.70898C111.658 4.58008 111.537 4.47656 111.381 4.39844C111.225 4.31641 111.037 4.27539 110.818 4.27539C110.389 4.27539 110.021 4.39062 109.717 4.62109C109.416 4.85156 109.201 5.17578 109.072 5.59375C109.037 5.875 109.02 6.17578 109.02 6.49609V10H108.041V6.54883C108.041 6.25977 108.031 6.00977 108.012 5.79883C107.992 5.58398 107.955 5.37695 107.9 5.17773C107.846 4.97461 107.771 4.81055 107.678 4.68555C107.588 4.56055 107.467 4.46094 107.314 4.38672C107.162 4.3125 106.98 4.27539 106.77 4.27539C106.301 4.27539 105.906 4.39453 105.586 4.63281C105.27 4.87109 105.057 5.1875 104.947 5.58203C104.912 5.88281 104.895 6.20898 104.895 6.56055V10H103.916C103.908 5.98047 103.904 3.83789 103.904 3.57227H104.725L104.848 4.49219C105.043 4.19531 105.32 3.94531 105.68 3.74219C106.039 3.53906 106.447 3.4375 106.904 3.4375C107.143 3.4375 107.361 3.46289 107.561 3.51367C107.764 3.56055 107.932 3.62109 108.064 3.69531C108.201 3.76953 108.322 3.85938 108.428 3.96484C108.533 4.06641 108.615 4.16797 108.674 4.26953C108.732 4.36719 108.781 4.4707 108.82 4.58008C109.289 3.81836 110.006 3.4375 110.971 3.4375C111.686 3.4375 112.209 3.64258 112.541 4.05273C112.877 4.45898 113.045 5.0625 113.045 5.86328V10H112.066ZM116.156 9.34375C116.621 9.34375 117.029 9.2168 117.381 8.96289C117.736 8.70508 117.965 8.35938 118.066 7.92578V6.8418C118.047 6.8418 117.928 6.85156 117.709 6.87109C117.494 6.89062 117.354 6.90234 117.287 6.90625C116.439 6.98047 115.848 7.11914 115.512 7.32227C115.18 7.52539 115.014 7.85156 115.014 8.30078C115.014 8.64453 115.115 8.9043 115.318 9.08008C115.521 9.25586 115.801 9.34375 116.156 9.34375ZM118.283 10C118.225 9.75 118.168 9.48047 118.113 9.19141C117.758 9.54688 117.424 9.79297 117.111 9.92969C116.799 10.0664 116.432 10.1348 116.01 10.1348C115.408 10.1348 114.924 9.97852 114.557 9.66602C114.193 9.34961 114.012 8.89648 114.012 8.30664C114.012 7.65039 114.26 7.16406 114.756 6.84766C115.256 6.53125 115.975 6.33398 116.912 6.25586C117.041 6.24414 117.234 6.22852 117.492 6.20898C117.754 6.18555 117.949 6.16797 118.078 6.15625V5.58789C118.078 5.13477 117.973 4.79883 117.762 4.58008C117.551 4.36133 117.219 4.25195 116.766 4.25195C116.133 4.25195 115.494 4.4082 114.85 4.7207C114.83 4.67383 114.779 4.53906 114.697 4.31641C114.615 4.08984 114.572 3.97266 114.568 3.96484C114.854 3.80469 115.191 3.67773 115.582 3.58398C115.977 3.48633 116.377 3.4375 116.783 3.4375C117.584 3.4375 118.16 3.61328 118.512 3.96484C118.867 4.3125 119.045 4.90625 119.045 5.74609V10H118.283ZM122.783 10.1172C122.15 10.1172 121.701 9.96289 121.436 9.6543C121.17 9.3457 121.029 8.84766 121.014 8.16016V4.29883H120.059L120.1 3.6543L121.008 3.57227L121.342 2.10156L121.986 2.07812V3.57227H123.773V4.29883H121.986V7.98438C121.986 8.47266 122.061 8.81641 122.209 9.01562C122.357 9.21484 122.611 9.31445 122.971 9.31445C123.1 9.31445 123.379 9.2832 123.809 9.2207L123.85 9.99414C123.385 10.0762 123.029 10.1172 122.783 10.1172ZM124.91 4.76758V3.41406H126.117V4.76758H124.91ZM124.91 10.1465V8.78125H126.117V10.1465H124.91ZM130.787 12.7891V3.57227H131.648L131.742 4.44531C132.305 3.77344 132.98 3.4375 133.77 3.4375C134.355 3.4375 134.852 3.58398 135.258 3.87695C135.664 4.16992 135.963 4.56641 136.154 5.06641C136.35 5.56641 136.447 6.15039 136.447 6.81836C136.447 7.45898 136.342 8.0293 136.131 8.5293C135.92 9.02539 135.609 9.41797 135.199 9.70703C134.793 9.99219 134.316 10.1348 133.77 10.1348C133.355 10.1348 132.967 10.043 132.604 9.85938C132.24 9.67188 131.949 9.42578 131.73 9.12109C131.754 9.54297 131.766 9.95312 131.766 10.3516V12.7246L130.787 12.7891ZM133.635 9.30859C133.932 9.30859 134.197 9.24219 134.432 9.10938C134.666 8.97266 134.855 8.78711 135 8.55273C135.145 8.31836 135.254 8.05273 135.328 7.75586C135.402 7.45508 135.439 7.13086 135.439 6.7832C135.439 6.04883 135.285 5.44727 134.977 4.97852C134.668 4.50586 134.217 4.26953 133.623 4.26953C132.381 4.26953 131.76 5.07227 131.76 6.67773C131.76 7.54883 131.904 8.20508 132.193 8.64648C132.486 9.08789 132.967 9.30859 133.635 9.30859ZM137.83 10V3.57227H138.65L138.773 4.49219C139.027 4.17578 139.344 3.92188 139.723 3.73047C140.105 3.53516 140.518 3.4375 140.959 3.4375C141.701 3.4375 142.25 3.64648 142.605 4.06445C142.961 4.47852 143.139 5.11719 143.139 5.98047V10H142.16C142.16 7.42188 142.158 6.04102 142.154 5.85742C142.139 5.31055 142.027 4.91016 141.82 4.65625C141.617 4.40234 141.275 4.27539 140.795 4.27539C140.291 4.27539 139.871 4.39648 139.535 4.63867C139.199 4.88086 138.98 5.19531 138.879 5.58203C138.84 5.84375 138.82 6.14453 138.82 6.48438V10H137.83ZM147.264 9.16211C147.596 9.16211 147.887 9.10352 148.137 8.98633C148.387 8.86914 148.582 8.70703 148.723 8.5C148.863 8.29297 148.967 8.0625 149.033 7.80859C149.104 7.55469 149.139 7.27734 149.139 6.97656V6.50195C149.139 6.18945 149.104 5.90234 149.033 5.64062C148.963 5.375 148.854 5.13867 148.705 4.93164C148.561 4.7207 148.365 4.55664 148.119 4.43945C147.877 4.32227 147.594 4.26367 147.27 4.26367C147 4.26367 146.754 4.31445 146.531 4.41602C146.312 4.51758 146.131 4.65234 145.986 4.82031C145.846 4.98438 145.725 5.17773 145.623 5.40039C145.525 5.61914 145.455 5.8418 145.412 6.06836C145.369 6.29492 145.348 6.52344 145.348 6.75391C145.348 6.98047 145.371 7.20508 145.418 7.42773C145.465 7.65039 145.539 7.86719 145.641 8.07812C145.742 8.28906 145.865 8.47461 146.01 8.63477C146.154 8.79102 146.334 8.91797 146.549 9.01562C146.768 9.11328 147.006 9.16211 147.264 9.16211ZM145.758 12.9414L145.67 12.0566H146.865C147.197 12.0566 147.486 12.0332 147.732 11.9863C147.979 11.9395 148.184 11.8613 148.348 11.752C148.512 11.6465 148.645 11.5273 148.746 11.3945C148.848 11.2656 148.924 11.0957 148.975 10.8848C149.029 10.6777 149.064 10.4707 149.08 10.2637C149.1 10.0605 149.109 9.81055 149.109 9.51367V8.94531C148.875 9.28125 148.604 9.54102 148.295 9.72461C147.986 9.9043 147.594 9.99414 147.117 9.99414C146.75 9.99414 146.41 9.93164 146.098 9.80664C145.789 9.67773 145.527 9.50781 145.312 9.29688C145.102 9.08594 144.92 8.8418 144.768 8.56445C144.619 8.28711 144.51 8 144.439 7.70312C144.373 7.40625 144.34 7.10742 144.34 6.80664C144.34 6.33789 144.396 5.9043 144.51 5.50586C144.627 5.10742 144.799 4.75195 145.025 4.43945C145.252 4.12695 145.549 3.88281 145.916 3.70703C146.287 3.52734 146.711 3.4375 147.188 3.4375C147.609 3.4375 147.977 3.51953 148.289 3.68359C148.605 3.84375 148.889 4.0918 149.139 4.42773V3.57227H150.094V9.53711C150.094 9.81055 150.086 10.0488 150.07 10.252C150.059 10.459 150.025 10.6875 149.971 10.9375C149.92 11.1875 149.85 11.4023 149.76 11.582C149.67 11.7617 149.543 11.9414 149.379 12.1211C149.219 12.3047 149.025 12.4512 148.799 12.5605C148.576 12.6738 148.299 12.7656 147.967 12.8359C147.635 12.9062 147.26 12.9414 146.842 12.9414H145.758ZM151.529 11.6289C151.541 11.5156 151.574 11.2148 151.629 10.7266C151.688 10.2422 151.732 9.83398 151.764 9.50195C151.795 9.16992 151.818 8.87891 151.834 8.62891H152.988V8.88672C152.797 9.66016 152.516 10.5742 152.145 11.6289H151.529ZM158.789 3.57227V10.8145C158.789 11.2285 158.762 11.5625 158.707 11.8164C158.656 12.0703 158.557 12.2852 158.408 12.4609C158.264 12.6406 158.066 12.7656 157.816 12.8359C157.566 12.9062 157.24 12.9414 156.838 12.9414H156.533L156.404 12.0566H156.709C156.861 12.0566 156.992 12.0469 157.102 12.0273C157.215 12.0117 157.311 11.9902 157.389 11.9629C157.471 11.9355 157.537 11.8906 157.588 11.8281C157.639 11.7656 157.678 11.7051 157.705 11.6465C157.736 11.5918 157.758 11.5078 157.77 11.3945C157.785 11.2812 157.795 11.1797 157.799 11.0898C157.803 11 157.805 10.873 157.805 10.709V3.57227H158.789ZM158.789 1.23438V2.39453H157.805V1.23438H158.789ZM160.307 12.7891V3.57227H161.168L161.262 4.44531C161.824 3.77344 162.5 3.4375 163.289 3.4375C163.875 3.4375 164.371 3.58398 164.777 3.87695C165.184 4.16992 165.482 4.56641 165.674 5.06641C165.869 5.56641 165.967 6.15039 165.967 6.81836C165.967 7.45898 165.861 8.0293 165.65 8.5293C165.439 9.02539 165.129 9.41797 164.719 9.70703C164.312 9.99219 163.836 10.1348 163.289 10.1348C162.875 10.1348 162.486 10.043 162.123 9.85938C161.76 9.67188 161.469 9.42578 161.25 9.12109C161.273 9.54297 161.285 9.95312 161.285 10.3516V12.7246L160.307 12.7891ZM163.154 9.30859C163.451 9.30859 163.717 9.24219 163.951 9.10938C164.186 8.97266 164.375 8.78711 164.52 8.55273C164.664 8.31836 164.773 8.05273 164.848 7.75586C164.922 7.45508 164.959 7.13086 164.959 6.7832C164.959 6.04883 164.805 5.44727 164.496 4.97852C164.188 4.50586 163.736 4.26953 163.143 4.26953C161.9 4.26953 161.279 5.07227 161.279 6.67773C161.279 7.54883 161.424 8.20508 161.713 8.64648C162.006 9.08789 162.486 9.30859 163.154 9.30859ZM171.053 4.76172C170.768 4.41797 170.375 4.24609 169.875 4.24609C169.375 4.24609 168.967 4.42383 168.65 4.7793C168.334 5.13086 168.148 5.61328 168.094 6.22656H171.486C171.486 5.58984 171.342 5.10156 171.053 4.76172ZM170.068 10.1348C169.135 10.1348 168.398 9.83789 167.859 9.24414C167.324 8.65039 167.057 7.83789 167.057 6.80664C167.057 5.81055 167.316 5.00391 167.836 4.38672C168.355 3.76562 169.039 3.44922 169.887 3.4375C170.684 3.4375 171.314 3.71094 171.779 4.25781C172.248 4.80078 172.482 5.52734 172.482 6.4375C172.482 6.48438 172.48 6.57031 172.477 6.69531C172.477 6.82031 172.477 6.91016 172.477 6.96484H168.064C168.076 7.69531 168.264 8.26562 168.627 8.67578C168.994 9.08203 169.486 9.28516 170.104 9.28516C170.783 9.28516 171.465 9.10547 172.148 8.74609L172.301 9.53711C171.648 9.93555 170.904 10.1348 170.068 10.1348ZM176.338 9.16211C176.67 9.16211 176.961 9.10352 177.211 8.98633C177.461 8.86914 177.656 8.70703 177.797 8.5C177.938 8.29297 178.041 8.0625 178.107 7.80859C178.178 7.55469 178.213 7.27734 178.213 6.97656V6.50195C178.213 6.18945 178.178 5.90234 178.107 5.64062C178.037 5.375 177.928 5.13867 177.779 4.93164C177.635 4.7207 177.439 4.55664 177.193 4.43945C176.951 4.32227 176.668 4.26367 176.344 4.26367C176.074 4.26367 175.828 4.31445 175.605 4.41602C175.387 4.51758 175.205 4.65234 175.061 4.82031C174.92 4.98438 174.799 5.17773 174.697 5.40039C174.6 5.61914 174.529 5.8418 174.486 6.06836C174.443 6.29492 174.422 6.52344 174.422 6.75391C174.422 6.98047 174.445 7.20508 174.492 7.42773C174.539 7.65039 174.613 7.86719 174.715 8.07812C174.816 8.28906 174.939 8.47461 175.084 8.63477C175.229 8.79102 175.408 8.91797 175.623 9.01562C175.842 9.11328 176.08 9.16211 176.338 9.16211ZM174.832 12.9414L174.744 12.0566H175.939C176.271 12.0566 176.561 12.0332 176.807 11.9863C177.053 11.9395 177.258 11.8613 177.422 11.752C177.586 11.6465 177.719 11.5273 177.82 11.3945C177.922 11.2656 177.998 11.0957 178.049 10.8848C178.104 10.6777 178.139 10.4707 178.154 10.2637C178.174 10.0605 178.184 9.81055 178.184 9.51367V8.94531C177.949 9.28125 177.678 9.54102 177.369 9.72461C177.061 9.9043 176.668 9.99414 176.191 9.99414C175.824 9.99414 175.484 9.93164 175.172 9.80664C174.863 9.67773 174.602 9.50781 174.387 9.29688C174.176 9.08594 173.994 8.8418 173.842 8.56445C173.693 8.28711 173.584 8 173.514 7.70312C173.447 7.40625 173.414 7.10742 173.414 6.80664C173.414 6.33789 173.471 5.9043 173.584 5.50586C173.701 5.10742 173.873 4.75195 174.1 4.43945C174.326 4.12695 174.623 3.88281 174.99 3.70703C175.361 3.52734 175.785 3.4375 176.262 3.4375C176.684 3.4375 177.051 3.51953 177.363 3.68359C177.68 3.84375 177.963 4.0918 178.213 4.42773V3.57227H179.168V9.53711C179.168 9.81055 179.16 10.0488 179.145 10.252C179.133 10.459 179.1 10.6875 179.045 10.9375C178.994 11.1875 178.924 11.4023 178.834 11.582C178.744 11.7617 178.617 11.9414 178.453 12.1211C178.293 12.3047 178.1 12.4512 177.873 12.5605C177.65 12.6738 177.373 12.7656 177.041 12.8359C176.709 12.9062 176.334 12.9414 175.916 12.9414H174.832ZM180.604 11.6289C180.615 11.5156 180.648 11.2148 180.703 10.7266C180.762 10.2422 180.807 9.83398 180.838 9.50195C180.869 9.16992 180.893 8.87891 180.908 8.62891H182.062V8.88672C181.871 9.66016 181.59 10.5742 181.219 11.6289H180.604ZM189.264 9.16211C189.596 9.16211 189.887 9.10352 190.137 8.98633C190.387 8.86914 190.582 8.70703 190.723 8.5C190.863 8.29297 190.967 8.0625 191.033 7.80859C191.104 7.55469 191.139 7.27734 191.139 6.97656V6.50195C191.139 6.18945 191.104 5.90234 191.033 5.64062C190.963 5.375 190.854 5.13867 190.705 4.93164C190.561 4.7207 190.365 4.55664 190.119 4.43945C189.877 4.32227 189.594 4.26367 189.27 4.26367C189 4.26367 188.754 4.31445 188.531 4.41602C188.312 4.51758 188.131 4.65234 187.986 4.82031C187.846 4.98438 187.725 5.17773 187.623 5.40039C187.525 5.61914 187.455 5.8418 187.412 6.06836C187.369 6.29492 187.348 6.52344 187.348 6.75391C187.348 6.98047 187.371 7.20508 187.418 7.42773C187.465 7.65039 187.539 7.86719 187.641 8.07812C187.742 8.28906 187.865 8.47461 188.01 8.63477C188.154 8.79102 188.334 8.91797 188.549 9.01562C188.768 9.11328 189.006 9.16211 189.264 9.16211ZM187.758 12.9414L187.67 12.0566H188.865C189.197 12.0566 189.486 12.0332 189.732 11.9863C189.979 11.9395 190.184 11.8613 190.348 11.752C190.512 11.6465 190.645 11.5273 190.746 11.3945C190.848 11.2656 190.924 11.0957 190.975 10.8848C191.029 10.6777 191.064 10.4707 191.08 10.2637C191.1 10.0605 191.109 9.81055 191.109 9.51367V8.94531C190.875 9.28125 190.604 9.54102 190.295 9.72461C189.986 9.9043 189.594 9.99414 189.117 9.99414C188.75 9.99414 188.41 9.93164 188.098 9.80664C187.789 9.67773 187.527 9.50781 187.312 9.29688C187.102 9.08594 186.92 8.8418 186.768 8.56445C186.619 8.28711 186.51 8 186.439 7.70312C186.373 7.40625 186.34 7.10742 186.34 6.80664C186.34 6.33789 186.396 5.9043 186.51 5.50586C186.627 5.10742 186.799 4.75195 187.025 4.43945C187.252 4.12695 187.549 3.88281 187.916 3.70703C188.287 3.52734 188.711 3.4375 189.188 3.4375C189.609 3.4375 189.977 3.51953 190.289 3.68359C190.605 3.84375 190.889 4.0918 191.139 4.42773V3.57227H192.094V9.53711C192.094 9.81055 192.086 10.0488 192.07 10.252C192.059 10.459 192.025 10.6875 191.971 10.9375C191.92 11.1875 191.85 11.4023 191.76 11.582C191.67 11.7617 191.543 11.9414 191.379 12.1211C191.219 12.3047 191.025 12.4512 190.799 12.5605C190.576 12.6738 190.299 12.7656 189.967 12.8359C189.635 12.9062 189.26 12.9414 188.842 12.9414H187.758ZM194.883 3.57227V10H193.898V3.57227H194.883ZM194.883 1.23438V2.39453H193.898V1.23438H194.883ZM199.172 1.70312C198.766 1.70312 198.486 1.82031 198.334 2.05469C198.186 2.28906 198.111 2.69531 198.111 3.27344V3.57227H199.658V4.29883H198.111V10H197.133V4.29883H196.09L196.172 3.6543L197.133 3.57227V3.28516C197.141 2.45703 197.295 1.85742 197.596 1.48633C197.9 1.11133 198.391 0.923828 199.066 0.923828C199.328 0.923828 199.648 0.953125 200.027 1.01172L199.963 1.7793C199.615 1.72852 199.352 1.70312 199.172 1.70312ZM201.346 10.0703C201.104 10.0703 200.912 9.99414 200.771 9.8418C200.635 9.68555 200.566 9.50391 200.566 9.29688C200.566 9.08594 200.635 8.9043 200.771 8.75195C200.908 8.59961 201.1 8.52344 201.346 8.52344C201.592 8.52344 201.783 8.59961 201.92 8.75195C202.057 8.9043 202.125 9.08594 202.125 9.29688C202.125 9.50781 202.057 9.68945 201.92 9.8418C201.783 9.99414 201.592 10.0703 201.346 10.0703Z" fill="#999999"/>
</svg>
