<svg width="53" height="24" viewBox="0 0 53 24" fill="none" xmlns="http://www.w3.org/2000/svg">
<path d="M10.2812 6.44531V13.9453C10.2812 15.2734 9.91667 16.3099 9.1875 17.0547C8.46354 17.7995 7.35938 18.1719 5.875 18.1719C4.39062 18.1719 3.29427 17.7995 2.58594 17.0547C1.8776 16.3099 1.52344 15.2682 1.52344 13.9297V6.44531H2.88281V13.9531C2.88281 15 3.13021 15.7708 3.625 16.2656C4.11979 16.7604 4.88542 17.0078 5.92188 17.0078C6.93229 17.0078 7.6849 16.7578 8.17969 16.2578C8.67969 15.7578 8.92969 14.987 8.92969 13.9453V6.44531H10.2812ZM12.6562 21.7188V9.42969H13.8047L13.9297 10.5938C14.6797 9.69792 15.5807 9.25 16.6328 9.25C17.4141 9.25 18.0755 9.44531 18.6172 9.83594C19.1589 10.2266 19.5573 10.7552 19.8125 11.4219C20.0729 12.0885 20.2031 12.8672 20.2031 13.7578C20.2031 14.612 20.0625 15.3724 19.7812 16.0391C19.5 16.7005 19.0859 17.224 18.5391 17.6094C17.9974 17.9896 17.362 18.1797 16.6328 18.1797C16.0807 18.1797 15.5625 18.0573 15.0781 17.8125C14.5938 17.5625 14.2057 17.2344 13.9141 16.8281C13.9453 17.3906 13.9609 17.9375 13.9609 18.4688V21.6328L12.6562 21.7188ZM16.4531 17.0781C16.849 17.0781 17.2031 16.9896 17.5156 16.8125C17.8281 16.6302 18.0807 16.3828 18.2734 16.0703C18.4661 15.7578 18.612 15.4036 18.7109 15.0078C18.8099 14.6068 18.8594 14.1745 18.8594 13.7109C18.8594 12.7318 18.6536 11.9297 18.2422 11.3047C17.8307 10.6745 17.2292 10.3594 16.4375 10.3594C14.7812 10.3594 13.9531 11.4297 13.9531 13.5703C13.9531 14.7318 14.1458 15.6068 14.5312 16.1953C14.9219 16.7839 15.5625 17.0781 16.4531 17.0781ZM24.3516 18.1562C23.5182 18.1562 22.9271 17.9323 22.5781 17.4844C22.2344 17.0365 22.0625 16.2578 22.0625 15.1484V6.10156L23.3594 6.02344V14.6328C23.3594 14.987 23.362 15.2708 23.3672 15.4844C23.3776 15.6979 23.3984 15.9089 23.4297 16.1172C23.4609 16.3203 23.5026 16.474 23.5547 16.5781C23.6068 16.6823 23.6823 16.7786 23.7812 16.8672C23.8802 16.9505 23.9974 17.0078 24.1328 17.0391C24.2734 17.0651 24.4453 17.0781 24.6484 17.0781C24.8151 17.0781 25.1432 17.0469 25.6328 16.9844L25.7031 18.0234C25.1667 18.112 24.7161 18.1562 24.3516 18.1562ZM27.4531 13.7344C27.4531 14.75 27.6771 15.5651 28.125 16.1797C28.5781 16.7891 29.237 17.0938 30.1016 17.0938C30.9557 17.0938 31.599 16.7891 32.0312 16.1797C32.4688 15.5703 32.6875 14.75 32.6875 13.7188C32.6875 12.6719 32.4714 11.849 32.0391 11.25C31.612 10.6458 30.9583 10.3438 30.0781 10.3438C29.224 10.3438 28.5729 10.651 28.125 11.2656C27.6771 11.8802 27.4531 12.7031 27.4531 13.7344ZM34.0391 13.7109C34.0391 15.0391 33.6849 16.1172 32.9766 16.9453C32.2682 17.7682 31.2891 18.1797 30.0391 18.1797C28.8359 18.1797 27.8776 17.763 27.1641 16.9297C26.4557 16.0964 26.1016 15.026 26.1016 13.7188C26.1016 12.3854 26.4583 11.3073 27.1719 10.4844C27.8854 9.66146 28.8646 9.25 30.1094 9.25C31.3333 9.25 32.2943 9.66406 32.9922 10.4922C33.6901 11.3151 34.0391 12.388 34.0391 13.7109ZM38.2422 17.125C38.862 17.125 39.4062 16.9557 39.875 16.6172C40.349 16.2734 40.6536 15.8125 40.7891 15.2344V13.7891C40.763 13.7891 40.6042 13.8021 40.3125 13.8281C40.026 13.8542 39.8385 13.8698 39.75 13.875C38.6198 13.974 37.8307 14.1589 37.3828 14.4297C36.9401 14.7005 36.7188 15.1354 36.7188 15.7344C36.7188 16.1927 36.8542 16.5391 37.125 16.7734C37.3958 17.0078 37.7682 17.125 38.2422 17.125ZM41.0781 18C41 17.6667 40.9245 17.3073 40.8516 16.9219C40.3776 17.3958 39.9323 17.724 39.5156 17.9062C39.099 18.0885 38.6094 18.1797 38.0469 18.1797C37.2448 18.1797 36.599 17.9714 36.1094 17.5547C35.625 17.1328 35.3828 16.5286 35.3828 15.7422C35.3828 14.8672 35.7135 14.2188 36.375 13.7969C37.0417 13.375 38 13.112 39.25 13.0078C39.4219 12.9922 39.6797 12.9714 40.0234 12.9453C40.3724 12.9141 40.6328 12.8906 40.8047 12.875V12.1172C40.8047 11.513 40.6641 11.0651 40.3828 10.7734C40.1016 10.4818 39.6589 10.3359 39.0547 10.3359C38.2109 10.3359 37.3594 10.5443 36.5 10.9609C36.474 10.8984 36.4062 10.7188 36.2969 10.4219C36.1875 10.1198 36.1302 9.96354 36.125 9.95312C36.5052 9.73958 36.9557 9.57031 37.4766 9.44531C38.0026 9.3151 38.5365 9.25 39.0781 9.25C40.1458 9.25 40.9141 9.48438 41.3828 9.95312C41.8568 10.4167 42.0938 11.2083 42.0938 12.3281V18H41.0781ZM47.6875 17.0547C48.5469 17.0547 49.1849 16.7786 49.6016 16.2266C50.0234 15.6745 50.2344 14.8854 50.2344 13.8594C50.2344 12.7031 50.0312 11.8333 49.625 11.25C49.224 10.6615 48.5729 10.3672 47.6719 10.3672C47.2708 10.3672 46.9167 10.4531 46.6094 10.625C46.3021 10.7969 46.0547 11.0365 45.8672 11.3438C45.6797 11.651 45.5365 12.0052 45.4375 12.4062C45.3438 12.8021 45.2969 13.237 45.2969 13.7109C45.2969 14.3776 45.3776 14.9557 45.5391 15.4453C45.7057 15.9349 45.9714 16.3255 46.3359 16.6172C46.7005 16.9089 47.151 17.0547 47.6875 17.0547ZM50.2578 16.7578C49.9766 17.1901 49.6016 17.5339 49.1328 17.7891C48.6641 18.0443 48.1406 18.1719 47.5625 18.1719C46.4323 18.1719 45.5469 17.7708 44.9062 16.9688C44.2656 16.1615 43.9453 15.0651 43.9453 13.6797C43.9453 12.3568 44.2708 11.2891 44.9219 10.4766C45.5729 9.65885 46.4453 9.25 47.5391 9.25C48.1068 9.25 48.6406 9.375 49.1406 9.625C49.6458 9.86979 50.0234 10.2005 50.2734 10.6172L50.25 9.875V6.10156L51.5391 6.02344V18H50.4297L50.2578 16.7578Z" fill="#2E2E2E"/>
</svg>
